# Blender v2.92.0 OBJ File: ''
# www.blender.org
mtllib goal.mtl
o 平面.002_平面.012
v -1.000000 0.000000 -5.000000
v 0.000000 0.000000 -5.000000
v -1.000000 0.000000 -6.000000
v 0.000000 0.000000 -6.000000
v 1.000855 0.000000 4.000856
v 0.000856 0.000000 3.999146
v 0.999144 0.000000 5.000854
v -0.000855 0.000000 4.999144
v 1.016251 0.000000 -4.999130
v 0.016253 0.000000 -5.000841
v 1.014541 0.000000 -3.999132
v 0.014542 0.000000 -4.000843
v 1.014541 0.000000 -3.999132
v 0.014542 0.000000 -4.000843
v 1.012830 0.000000 -2.999134
v 0.012831 0.000000 -3.000844
v 1.012830 0.000000 -2.999134
v 0.012831 0.000000 -3.000844
v 1.011119 0.000000 -1.999135
v 0.011121 0.000000 -2.000846
v 1.011119 0.000000 -1.999135
v 0.011121 0.000000 -2.000846
v 1.009408 0.000000 -0.999136
v 0.009410 0.000000 -1.000847
v 1.009408 0.000000 -0.999136
v 0.009410 0.000000 -1.000847
v 1.007698 0.000000 0.000862
v 0.007699 0.000000 -0.000849
v 1.007698 0.000000 0.000862
v 0.007699 0.000000 -0.000849
v 1.005987 0.000000 1.000861
v 0.005988 0.000000 0.999150
v 1.005987 0.000000 1.000861
v 0.005988 0.000000 0.999150
v 1.004276 0.000000 2.000859
v 0.004278 0.000000 1.999148
v 1.004276 0.000000 2.000859
v 0.004278 0.000000 1.999148
v 1.002565 0.000000 3.000857
v 0.002567 0.000000 2.999147
v 1.002565 0.000000 3.000857
v 0.002567 0.000000 2.999147
v 1.000855 0.000000 4.000856
v 0.000856 0.000000 3.999146
v -1.000000 0.000000 -4.000001
v -0.000000 0.000000 -4.000001
v -1.000000 0.000000 -5.000000
v 0.000000 0.000000 -5.000000
v -1.000000 0.000000 5.000000
v -0.000000 0.000000 5.000000
v -1.000000 0.000000 4.000000
v 0.000000 0.000000 4.000000
v -1.000000 0.000000 4.000000
v 0.000000 0.000000 4.000000
v -1.000000 0.000000 3.000000
v 0.000000 0.000000 3.000000
v -1.000000 0.000000 3.000000
v 0.000000 0.000000 3.000000
v -1.000000 0.000000 2.000000
v 0.000000 0.000000 2.000000
v -1.000000 0.000000 2.000000
v 0.000000 0.000000 2.000000
v -1.000000 0.000000 1.000000
v 0.000000 0.000000 1.000000
v -1.000000 0.000000 1.000000
v 0.000000 0.000000 1.000000
v -1.000000 0.000000 0.000000
v 0.000000 0.000000 0.000000
v -1.000000 0.000000 0.000000
v 0.000000 0.000000 0.000000
v -1.000000 0.000000 -1.000000
v 0.000000 0.000000 -1.000000
v -1.000000 0.000000 -1.000000
v 0.000000 0.000000 -1.000000
v -1.000000 0.000000 -2.000000
v 0.000000 0.000000 -2.000000
v -1.000000 0.000000 -2.000000
v 0.000000 0.000000 -2.000000
v -1.000000 0.000000 -3.000000
v 0.000000 0.000000 -3.000000
v -1.000000 0.000000 -3.000000
v 0.000000 0.000000 -3.000000
v -1.000000 0.000000 -4.000001
v -0.000000 0.000000 -4.000001
v 0.000000 0.000000 -5.000000
v 1.000000 0.000000 -5.000000
v 0.000000 0.000000 -6.000000
v 1.000000 0.000000 -6.000000
v 0.000000 0.000000 6.000000
v 1.000000 0.000000 6.000000
v 0.000000 0.000000 5.000000
v 1.000000 0.000000 5.000000
v -1.000000 0.000000 6.000000
v 0.000000 0.000000 6.000000
v -1.000000 0.000000 5.000000
v 0.000000 0.000000 5.000000
vt 1.000000 0.000000
vt 0.000000 1.000000
vt 0.000000 0.000000
vt 1.000000 1.000000
vt 1.000000 0.000000
vt 0.000000 1.000000
vt 0.000000 0.000000
vt 1.000000 0.000000
vt 0.000000 1.000000
vt 0.000000 0.000000
vt 1.000000 1.000000
vt 1.000000 1.000000
vt 1.000000 0.000000
vt 0.000000 1.000000
vt 0.000000 0.000000
vt 1.000000 1.000000
vt 0.000000 0.000000
vt 1.000000 1.000000
vt 0.000000 1.000000
vt 1.000000 0.000000
vt 1.000000 0.000000
vt 0.000000 1.000000
vt 0.000000 0.000000
vt 1.000000 1.000000
vt 1.000000 0.000000
vt 0.000000 1.000000
vt 0.000000 0.000000
vt 1.000000 1.000000
vt 1.000000 0.000000
vt 0.000000 1.000000
vt 0.000000 0.000000
vt 1.000000 1.000000
vt 1.000000 0.000000
vt 0.000000 1.000000
vt 0.000000 0.000000
vt 1.000000 1.000000
vt 1.000000 0.000000
vt 0.000000 1.000000
vt 0.000000 0.000000
vt 1.000000 1.000000
vt 1.000000 0.000000
vt 0.000000 1.000000
vt 0.000000 0.000000
vt 1.000000 1.000000
vt 1.000000 0.000000
vt 0.000000 1.000000
vt 0.000000 0.000000
vt 1.000000 1.000000
vt 1.000000 0.000000
vt 0.000000 1.000000
vt 0.000000 0.000000
vt 1.000000 1.000000
vt 1.000000 0.000000
vt 0.000000 1.000000
vt 0.000000 0.000000
vt 1.000000 1.000000
vt 1.000000 0.000000
vt 0.000000 1.000000
vt 0.000000 0.000000
vt 1.000000 1.000000
vt 1.000000 0.000000
vt 0.000000 1.000000
vt 0.000000 0.000000
vt 1.000000 1.000000
vt 1.000000 0.000000
vt 0.000000 1.000000
vt 0.000000 0.000000
vt 1.000000 1.000000
vt 1.000000 0.000000
vt 0.000000 1.000000
vt 0.000000 0.000000
vt 1.000000 1.000000
vt 1.000000 0.000000
vt 0.000000 1.000000
vt 0.000000 0.000000
vt 1.000000 1.000000
vt 1.000000 0.000000
vt 0.000000 1.000000
vt 0.000000 0.000000
vt 1.000000 1.000000
vt 1.000000 0.000000
vt 0.000000 1.000000
vt 0.000000 0.000000
vt 1.000000 1.000000
vt 1.000000 0.000000
vt 0.000000 1.000000
vt 0.000000 0.000000
vt 1.000000 1.000000
vt 1.000000 0.000000
vt 0.000000 1.000000
vt 0.000000 0.000000
vt 1.000000 1.000000
vt 1.000000 0.000000
vt 0.000000 1.000000
vt 0.000000 0.000000
vt 1.000000 1.000000
vn 0.0000 1.0000 0.0000
usemtl マテリアル.020
s off
f 2/1/1 3/2/1 1/3/1
f 2/1/1 4/4/1 3/2/1
usemtl マテリアル.019
f 6/5/1 7/6/1 5/7/1
f 86/8/1 87/9/1 85/10/1
f 6/5/1 8/11/1 7/6/1
f 86/8/1 88/12/1 87/9/1
usemtl マテリアル.018
f 10/13/1 11/14/1 9/15/1
f 10/13/1 12/16/1 11/14/1
usemtl マテリアル.017
f 13/17/1 16/18/1 15/19/1
f 13/17/1 14/20/1 16/18/1
usemtl マテリアル.016
f 18/21/1 19/22/1 17/23/1
f 18/21/1 20/24/1 19/22/1
usemtl マテリアル.015
f 22/25/1 23/26/1 21/27/1
f 22/25/1 24/28/1 23/26/1
usemtl マテリアル.014
f 26/29/1 27/30/1 25/31/1
f 26/29/1 28/32/1 27/30/1
usemtl マテリアル.013
f 30/33/1 31/34/1 29/35/1
f 30/33/1 32/36/1 31/34/1
usemtl マテリアル.012
f 34/37/1 35/38/1 33/39/1
f 34/37/1 36/40/1 35/38/1
usemtl マテリアル.011
f 38/41/1 39/42/1 37/43/1
f 38/41/1 40/44/1 39/42/1
usemtl マテリアル.010
f 42/45/1 43/46/1 41/47/1
f 42/45/1 44/48/1 43/46/1
usemtl マテリアル.009
f 46/49/1 47/50/1 45/51/1
f 46/49/1 48/52/1 47/50/1
usemtl マテリアル
f 50/53/1 51/54/1 49/55/1
f 50/53/1 52/56/1 51/54/1
usemtl マテリアル.001
f 54/57/1 55/58/1 53/59/1
f 54/57/1 56/60/1 55/58/1
usemtl マテリアル.002
f 58/61/1 59/62/1 57/63/1
f 58/61/1 60/64/1 59/62/1
usemtl マテリアル.003
f 62/65/1 63/66/1 61/67/1
f 62/65/1 64/68/1 63/66/1
usemtl マテリアル.004
f 66/69/1 67/70/1 65/71/1
f 66/69/1 68/72/1 67/70/1
usemtl マテリアル.008
f 70/73/1 71/74/1 69/75/1
f 70/73/1 72/76/1 71/74/1
usemtl マテリアル.007
f 74/77/1 75/78/1 73/79/1
f 74/77/1 76/80/1 75/78/1
usemtl マテリアル.006
f 78/81/1 79/82/1 77/83/1
f 78/81/1 80/84/1 79/82/1
usemtl マテリアル.005
f 82/85/1 83/86/1 81/87/1
f 82/85/1 84/88/1 83/86/1
usemtl マテリアル.021
f 90/89/1 91/90/1 89/91/1
f 90/89/1 92/92/1 91/90/1
usemtl マテリアル.022
f 94/93/1 95/94/1 93/95/1
f 94/93/1 96/96/1 95/94/1
